<svg width="1080" height="1080" viewBox="0 0 1080 1080" fill="none" xmlns="http://www.w3.org/2000/svg">
<rect width="1080" height="1080" fill="white"/>
<path d="M379.026 674.295H700.408C708.154 674.295 714.434 668.015 714.434 660.269V456.514C714.434 448.767 708.154 442.487 700.408 442.487H379.026C371.28 442.487 365 448.767 365 456.514V660.269C365 668.015 371.28 674.295 379.026 674.295Z" fill="#1C85E8"/>
<path d="M496.427 584.211C495.487 574.045 492.116 558.816 492.116 558.816C492.116 558.816 489.204 558.547 480.22 578.621C473.567 593.665 465.848 608.998 464.572 621.969L479.893 603.694L496.427 584.211Z" fill="#96BAFD"/>
<path d="M434.977 511.07C433.338 495.602 437.547 494.852 437.606 486.465C437.635 478.27 450.009 463.098 444.107 463.405C438.205 463.711 434.061 469.352 434.061 469.352C433.185 462 434.664 449.765 427.141 445.149C419.617 440.533 417.846 442.767 411.72 444.603C395.366 449.626 404.495 471.267 404.662 478.125C404.81 482.442 412.402 498.587 412.746 501.565L415.164 513.048L434.977 511.07Z" fill="#FCA39B"/>
<path d="M425.656 466.754L423.419 444.551" stroke="#E56441" stroke-width="1.0064" stroke-linecap="round"/>
<path d="M418.006 467L414.367 445.672" stroke="#E56441" stroke-width="1.0064" stroke-linecap="round"/>
<path d="M409.018 467.049L407.179 454.285" stroke="#E56441" stroke-width="1.0064" stroke-linecap="round"/>
<path d="M421.416 483.703C424.088 477.457 431.021 471.444 431.021 471.444" stroke="#E56441" stroke-width="1.0064" stroke-linecap="round"/>
<path fill-rule="evenodd" clip-rule="evenodd" d="M437.987 511.556C437.673 511.363 437.323 511.24 436.963 511.192C436.31 509.305 435.499 507.449 434.643 506.651C432.599 504.749 417.374 507.658 414.944 508.681C413.401 509.331 413.817 513.322 414.327 516.149C414.233 516.252 414.144 516.36 414.06 516.473C413.49 517.247 413.227 518.205 413.323 519.162L422.24 613.454C422.239 613.549 422.238 613.645 422.238 613.74C422.238 625.575 431.833 635.169 443.668 635.169C449.532 635.169 454.846 632.814 458.715 628.997L458.801 629.076L464.716 622.017L480.038 603.743L496.427 584.211L498.463 581.988L520.571 556.947C520.571 556.947 520.505 556.922 520.383 556.871C523.153 554.238 525.338 550.909 526.636 547.032C530.878 534.367 524.05 520.661 511.385 516.419C501.242 513.022 490.432 516.725 484.349 524.84C478.315 531.846 465.107 549.24 452.923 565.547L439.127 513.042C438.944 512.423 438.538 511.893 437.987 511.556Z" fill="url(#paint0_linear)"/>
<path d="M528.553 505.842C528.553 505.842 503.95 513.102 497.759 515.691C491.568 518.281 491.155 528.64 490.742 535.978C490.453 541.119 489.481 601.448 489.863 650.342C489.944 660.788 487.5 668.489 486.249 674.295H619.938C619.938 674.295 618.691 669.197 618.382 656.697C617.126 605.914 616.891 538.306 616.341 534.28C615.516 528.237 622.002 523.033 614.971 519.991L571.453 502.602L528.553 505.842Z" fill="url(#paint1_linear)"/>
<path d="M584.587 558.111C584.587 558.111 576.364 609.147 575.967 632.61C575.72 647.23 575.917 665.83 575.867 674.295H619.938L610.857 631.126L614.143 558.355L584.587 558.111Z" fill="url(#paint2_linear)"/>
<path d="M534.239 480.966L538.441 520.222C538.441 520.222 537.977 531.954 544.738 531.949C568.447 531.932 573.547 510.858 572.773 508.056C571.663 504.041 567.12 473.579 567.12 473.579L534.239 480.966Z" fill="#FCA39B"/>
<path d="M538.706 518.286L534.498 484.073H552.97L538.706 518.286Z" fill="#E56441" stroke="#E56441"/>
<path d="M577.96 457.152C577.007 441.739 560.287 447.705 557.45 448.85C554.613 449.995 546.48 428.204 546.48 428.204C546.48 428.204 511.539 427.457 505.198 434.634C505.198 434.634 505.058 463.721 507.159 482.008C509.259 500.295 515.625 507.637 522.385 507.219C531.712 507.428 542.162 503.921 548.389 498.807C559.482 489.696 562.667 475.853 562.667 475.853C562.872 475.719 562.984 475.648 562.984 475.648C562.984 475.648 578.86 471.709 577.96 457.152Z" fill="#FCA39B"/>
<path d="M575.803 472.126C582.586 460.178 597.637 438.437 570.937 413.235C555.778 398.926 498.508 400.288 501.007 441.46C501.262 445.664 503.107 453.797 505.544 456.84L506.113 445.511C507.617 436.719 509.663 446.866 520.571 446.451C537.64 445.802 539.027 437.789 543.826 440.409C553.326 445.597 547.966 457.093 550.007 460.314C552.95 464.958 554.276 459.906 554.276 459.906C559.061 454.848 565.205 452.189 569.54 457.684C575.242 464.911 561.294 477.676 561.294 477.676L569.172 488.89C573.37 487.849 575.812 472.116 575.812 472.116L575.803 472.126Z" fill="#080B09"/>
<path d="M532.895 464.141C532.966 461.924 531.846 460.089 530.394 460.042C528.941 459.995 527.705 461.755 527.634 463.972C527.563 466.19 528.683 468.025 530.135 468.072C531.588 468.119 532.824 466.359 532.895 464.141Z" fill="#080B09"/>
<path d="M512.881 463.37C512.952 461.152 511.832 459.317 510.379 459.27C508.927 459.224 507.691 460.983 507.62 463.201C507.548 465.418 508.669 467.254 510.121 467.3C511.574 467.347 512.81 465.587 512.881 463.37Z" fill="#080B09"/>
<path d="M517.727 468.326C517.727 468.326 520.962 472.48 517.528 473.188C514.225 473.751 512.664 476.039 516.505 478.225" stroke="#E56441" stroke-width="1.01075" stroke-linecap="round"/>
<path d="M517.802 482.412L517.819 482.411L517.835 482.409C519.906 482.178 524.04 481.716 526.796 481.455L526.796 481.455L526.801 481.454C526.876 481.447 526.951 481.459 527.019 481.491C527.087 481.523 527.145 481.573 527.186 481.636C527.228 481.699 527.252 481.772 527.255 481.846C527.257 481.918 527.241 481.989 527.208 482.053C526.733 482.82 526.094 483.745 525.348 484.578C524.594 485.421 523.757 486.139 522.897 486.521C522.057 486.896 521.212 486.945 520.363 486.489C519.486 486.017 518.532 484.968 517.595 482.976L517.578 482.939L517.556 482.906C517.524 482.86 517.505 482.806 517.501 482.749C517.497 482.693 517.509 482.637 517.534 482.587C517.559 482.536 517.597 482.493 517.644 482.463C517.691 482.432 517.746 482.414 517.802 482.412Z" fill="#E56441" stroke="#E56441"/>
<path d="M538.053 457.01L537.872 457.409C537.659 458.013 537.216 458.509 536.639 458.789C536.062 459.068 535.398 459.107 534.792 458.899L524.471 455.04C523.963 454.874 523.537 454.523 523.276 454.058C523.015 453.592 522.938 453.045 523.061 452.526C523.121 452.204 523.249 451.899 523.436 451.63C523.623 451.362 523.865 451.136 524.146 450.968C524.427 450.799 524.74 450.693 525.065 450.654C525.39 450.616 525.719 450.647 526.031 450.746L536.534 454.206C536.821 454.286 537.088 454.422 537.321 454.608C537.554 454.793 537.747 455.024 537.889 455.286C538.03 455.547 538.118 455.835 538.146 456.131C538.174 456.427 538.143 456.726 538.053 457.01Z" fill="#080B09"/>
<path d="M502.986 451.997L513.977 450.777C514.302 450.745 514.631 450.782 514.941 450.887C515.251 450.991 515.536 451.16 515.776 451.382C516.016 451.605 516.206 451.876 516.334 452.177C516.461 452.479 516.523 452.804 516.516 453.131C516.529 453.665 516.342 454.184 515.99 454.585C515.639 454.987 515.149 455.242 514.618 455.3L503.723 456.948C503.087 457.027 502.445 456.851 501.938 456.459C501.431 456.067 501.1 455.49 501.017 454.855L500.922 454.427C500.893 454.131 500.923 453.832 501.012 453.548C501.101 453.264 501.246 453 501.438 452.774C501.631 452.547 501.867 452.361 502.133 452.228C502.399 452.094 502.689 452.016 502.986 451.997Z" fill="#080B09"/>
<path d="M471.575 610.005H509.154C509.702 610.024 510.248 609.917 510.748 609.691C511.248 609.466 511.689 609.128 512.037 608.703C512.385 608.279 512.63 607.78 512.754 607.246C512.877 606.711 512.875 606.155 512.749 605.621L501.193 541.401C500.948 540.196 500.304 539.109 499.366 538.314C498.428 537.519 497.25 537.062 496.021 537.017H458.442C457.894 536.998 457.349 537.105 456.849 537.331C456.349 537.556 455.907 537.895 455.559 538.319C455.212 538.743 454.966 539.242 454.843 539.776C454.719 540.311 454.721 540.867 454.848 541.401L466.403 605.621C466.649 606.826 467.292 607.914 468.23 608.709C469.168 609.504 470.346 609.96 471.575 610.005Z" fill="#5CA4E6"/>
<path d="M469.889 610.005H507.468C508.016 610.024 508.561 609.917 509.061 609.691C509.561 609.466 510.003 609.128 510.35 608.703C510.698 608.279 510.944 607.78 511.067 607.246C511.19 606.711 511.189 606.155 511.062 605.621L499.507 541.401C499.261 540.196 498.618 539.109 497.68 538.314C496.742 537.519 495.563 537.062 494.335 537.017H456.756C456.208 536.998 455.662 537.105 455.162 537.331C454.662 537.556 454.221 537.895 453.873 538.319C453.525 538.743 453.28 539.242 453.156 539.776C453.033 540.311 453.035 540.867 453.161 541.401L464.717 605.621C464.962 606.826 465.606 607.914 466.544 608.709C467.482 609.504 468.66 609.96 469.889 610.005Z" fill="white"/>
<path d="M527.932 592.06L523.569 606.283C523.569 606.283 505.493 601.949 501.626 600.051C494.086 596.174 485.978 590.945 485.028 588.957C482.119 583.929 481.777 577.708 482.109 573.363C482.152 572.717 482.352 572.092 482.693 571.542C483.034 570.992 483.505 570.534 484.065 570.209C484.624 569.884 485.255 569.702 485.902 569.678C486.549 569.654 487.191 569.79 487.773 570.073L503.595 577.969C503.595 577.969 505.655 574.489 503.583 571.723C502.248 569.897 504.308 566.417 505.223 565.351C505.635 565.106 506.105 564.976 506.584 564.974C507.063 564.973 507.534 565.1 507.947 565.342C508.684 566.282 507.671 569.55 509.225 571.624C511.871 574.945 509.522 576.387 516.334 582.047C521.724 586.487 527.988 591.923 527.932 592.06Z" fill="#FCA39B"/>
<path d="M497.332 580.374C492.83 578.857 483.649 573.511 483.649 573.511" stroke="#E56441" stroke-width="1.17473" stroke-linecap="round" stroke-linejoin="round"/>
<path d="M497.924 586.377C494.301 585.059 484.733 579.875 484.733 579.875" stroke="#E56441" stroke-width="1.17473" stroke-linecap="round" stroke-linejoin="round"/>
<path d="M495.741 591.728C493.352 590.914 486.249 587.535 486.249 587.535" stroke="#E56441" stroke-width="1.17473" stroke-linecap="round" stroke-linejoin="round"/>
<path fill-rule="evenodd" clip-rule="evenodd" d="M581.456 550.522C583.211 561.208 589.302 587.594 594.703 610.292L527.018 584.763C526.366 584.546 525.657 584.578 525.027 584.853C524.398 585.128 523.892 585.626 523.608 586.252L514.882 605.768C514.474 606.707 514.431 607.764 514.759 608.733C515.087 609.703 515.764 610.516 516.658 611.014L614.331 665.377C618.046 668.003 622.581 669.545 627.476 669.545C640.07 669.545 650.28 659.335 650.28 646.741C650.28 643.208 649.477 639.864 648.044 636.879L647.34 632.929L642.895 607.943L638.154 581.228L637.73 578.048L632.4 542.902C632.4 542.902 632.333 542.94 632.208 543.004C631.953 538.944 630.728 534.885 628.451 531.176C621.015 519.063 605.167 515.272 593.054 522.709C583.353 528.664 578.989 540.015 581.456 550.522Z" fill="url(#paint3_linear)"/>
<path d="M686.442 473.276H644.364" stroke="white" stroke-width="9.56968" stroke-miterlimit="10" stroke-linecap="round"/>
<path opacity="0.4" d="M690.087 493.955H603.129" stroke="white" stroke-width="9.56968" stroke-miterlimit="10" stroke-linecap="round"/>
<defs>
<linearGradient id="paint0_linear" x1="457.333" y1="464.928" x2="505.619" y2="777.294" gradientUnits="userSpaceOnUse">
<stop stop-color="white"/>
<stop offset="1" stop-color="#94B9FF"/>
</linearGradient>
<linearGradient id="paint1_linear" x1="537.617" y1="447.973" x2="610.257" y2="860.365" gradientUnits="userSpaceOnUse">
<stop stop-color="white"/>
<stop offset="1" stop-color="#94B9FF"/>
</linearGradient>
<linearGradient id="paint2_linear" x1="592.571" y1="413.285" x2="735.181" y2="748.912" gradientUnits="userSpaceOnUse">
<stop stop-color="white"/>
<stop offset="1" stop-color="#94B9FF"/>
</linearGradient>
<linearGradient id="paint3_linear" x1="566.696" y1="470.97" x2="622.196" y2="835.582" gradientUnits="userSpaceOnUse">
<stop stop-color="white"/>
<stop offset="1" stop-color="#94B9FF"/>
</linearGradient>
</defs>
</svg>
